<mxfile host="app.diagrams.net" modified="2023-10-17T15:13:10.167Z" agent="Mozilla/5.0 (Windows NT 10.0; Win64; x64) AppleWebKit/537.36 (KHTML, like Gecko) Chrome/118.0.0.0 Safari/537.36" etag="K_DcFWf4f5tWhNCztMV8" version="22.0.4" type="google">
  <diagram name="Page-1" id="TGXIaMLf-oGkh5dWuD0Y">
    <mxGraphModel grid="0" page="0" gridSize="10" guides="1" tooltips="1" connect="1" arrows="1" fold="1" pageScale="1" pageWidth="850" pageHeight="1100" background="#ffffff" math="0" shadow="0">
      <root>
        <mxCell id="0" />
        <mxCell id="1" parent="0" />
        <mxCell id="EEZQLEo__Rguq-5ittKB-1" value="Frame Extraction" style="rounded=0;whiteSpace=wrap;html=1;labelBackgroundColor=none;" vertex="1" parent="1">
          <mxGeometry x="603" y="690" width="130" height="60" as="geometry" />
        </mxCell>
        <mxCell id="EEZQLEo__Rguq-5ittKB-2" value="Preprocessing" style="rounded=0;whiteSpace=wrap;html=1;labelBackgroundColor=none;" vertex="1" parent="1">
          <mxGeometry x="804" y="690" width="130" height="60" as="geometry" />
        </mxCell>
        <mxCell id="EEZQLEo__Rguq-5ittKB-9" value="" style="endArrow=classic;html=1;rounded=0;entryX=0;entryY=0.5;entryDx=0;entryDy=0;labelBackgroundColor=none;fontColor=default;" edge="1" parent="1" target="EEZQLEo__Rguq-5ittKB-1">
          <mxGeometry width="50" height="50" relative="1" as="geometry">
            <mxPoint x="497" y="720" as="sourcePoint" />
            <mxPoint x="510" y="700" as="targetPoint" />
          </mxGeometry>
        </mxCell>
        <mxCell id="EEZQLEo__Rguq-5ittKB-10" value="Autism&lt;br&gt;Videos" style="text;html=1;strokeColor=none;fillColor=none;align=center;verticalAlign=middle;whiteSpace=wrap;rounded=0;glass=0;shadow=0;labelBackgroundColor=none;" vertex="1" parent="1">
          <mxGeometry x="510" y="690" width="60" height="30" as="geometry" />
        </mxCell>
        <mxCell id="EEZQLEo__Rguq-5ittKB-11" value="" style="endArrow=classic;html=1;rounded=0;exitX=1;exitY=0.5;exitDx=0;exitDy=0;entryX=0;entryY=0.5;entryDx=0;entryDy=0;labelBackgroundColor=none;fontColor=default;" edge="1" parent="1" source="EEZQLEo__Rguq-5ittKB-1" target="EEZQLEo__Rguq-5ittKB-2">
          <mxGeometry width="50" height="50" relative="1" as="geometry">
            <mxPoint x="515" y="820" as="sourcePoint" />
            <mxPoint x="535" y="780" as="targetPoint" />
          </mxGeometry>
        </mxCell>
        <mxCell id="s0LP5q2Mw33e5tXU0Gxh-1" value="Kaggle dataset" style="rounded=0;whiteSpace=wrap;html=1;" vertex="1" parent="1">
          <mxGeometry x="608" y="569" width="120" height="60" as="geometry" />
        </mxCell>
        <mxCell id="s0LP5q2Mw33e5tXU0Gxh-2" value="" style="endArrow=classic;html=1;rounded=0;exitX=1;exitY=0.5;exitDx=0;exitDy=0;entryX=0.5;entryY=0;entryDx=0;entryDy=0;" edge="1" parent="1" source="s0LP5q2Mw33e5tXU0Gxh-1" target="EEZQLEo__Rguq-5ittKB-2">
          <mxGeometry width="50" height="50" relative="1" as="geometry">
            <mxPoint x="786" y="612" as="sourcePoint" />
            <mxPoint x="836" y="562" as="targetPoint" />
            <Array as="points">
              <mxPoint x="869" y="599" />
            </Array>
          </mxGeometry>
        </mxCell>
        <mxCell id="s0LP5q2Mw33e5tXU0Gxh-3" value="Full Face&lt;br&gt;Visible" style="rhombus;whiteSpace=wrap;html=1;" vertex="1" parent="1">
          <mxGeometry x="982" y="680" width="80" height="80" as="geometry" />
        </mxCell>
        <mxCell id="s0LP5q2Mw33e5tXU0Gxh-4" value="" style="endArrow=classic;html=1;rounded=0;exitX=1;exitY=0.5;exitDx=0;exitDy=0;entryX=0;entryY=0.5;entryDx=0;entryDy=0;entryPerimeter=0;" edge="1" parent="1" source="EEZQLEo__Rguq-5ittKB-2" target="s0LP5q2Mw33e5tXU0Gxh-3">
          <mxGeometry width="50" height="50" relative="1" as="geometry">
            <mxPoint x="923" y="779" as="sourcePoint" />
            <mxPoint x="990" y="720" as="targetPoint" />
          </mxGeometry>
        </mxCell>
        <mxCell id="s0LP5q2Mw33e5tXU0Gxh-5" value="Face Reconstruction using GAN" style="rounded=0;whiteSpace=wrap;html=1;" vertex="1" parent="1">
          <mxGeometry x="1110" y="690" width="120" height="60" as="geometry" />
        </mxCell>
        <mxCell id="s0LP5q2Mw33e5tXU0Gxh-6" value="" style="endArrow=classic;html=1;rounded=0;exitX=1;exitY=0.5;exitDx=0;exitDy=0;entryX=0;entryY=0.5;entryDx=0;entryDy=0;" edge="1" parent="1" source="s0LP5q2Mw33e5tXU0Gxh-3" target="s0LP5q2Mw33e5tXU0Gxh-5">
          <mxGeometry width="50" height="50" relative="1" as="geometry">
            <mxPoint x="1069" y="680" as="sourcePoint" />
            <mxPoint x="1119" y="630" as="targetPoint" />
          </mxGeometry>
        </mxCell>
        <mxCell id="s0LP5q2Mw33e5tXU0Gxh-8" value="" style="endArrow=classic;html=1;rounded=0;exitX=0.5;exitY=0;exitDx=0;exitDy=0;entryX=0.5;entryY=0;entryDx=0;entryDy=0;" edge="1" parent="1" source="s0LP5q2Mw33e5tXU0Gxh-5" target="s0LP5q2Mw33e5tXU0Gxh-3">
          <mxGeometry width="50" height="50" relative="1" as="geometry">
            <mxPoint x="1152" y="665" as="sourcePoint" />
            <mxPoint x="1202" y="615" as="targetPoint" />
            <Array as="points">
              <mxPoint x="1170" y="621" />
              <mxPoint x="1022" y="621" />
            </Array>
          </mxGeometry>
        </mxCell>
        <mxCell id="s0LP5q2Mw33e5tXU0Gxh-9" value="Data Augmentation&lt;br&gt;using GAN" style="rounded=0;whiteSpace=wrap;html=1;" vertex="1" parent="1">
          <mxGeometry x="962" y="790" width="120" height="60" as="geometry" />
        </mxCell>
        <mxCell id="s0LP5q2Mw33e5tXU0Gxh-10" value="" style="endArrow=classic;html=1;rounded=0;exitX=0.5;exitY=1;exitDx=0;exitDy=0;entryX=0.5;entryY=0;entryDx=0;entryDy=0;" edge="1" parent="1" source="s0LP5q2Mw33e5tXU0Gxh-3" target="s0LP5q2Mw33e5tXU0Gxh-9">
          <mxGeometry width="50" height="50" relative="1" as="geometry">
            <mxPoint x="923" y="779" as="sourcePoint" />
            <mxPoint x="973" y="729" as="targetPoint" />
          </mxGeometry>
        </mxCell>
        <mxCell id="s0LP5q2Mw33e5tXU0Gxh-11" value="Facial Action Unit&lt;br&gt;Detection" style="rounded=0;whiteSpace=wrap;html=1;" vertex="1" parent="1">
          <mxGeometry x="962" y="871" width="120" height="60" as="geometry" />
        </mxCell>
        <mxCell id="s0LP5q2Mw33e5tXU0Gxh-12" value="" style="endArrow=classic;html=1;rounded=0;exitX=0.5;exitY=1;exitDx=0;exitDy=0;entryX=0.5;entryY=0;entryDx=0;entryDy=0;" edge="1" parent="1" source="s0LP5q2Mw33e5tXU0Gxh-9" target="s0LP5q2Mw33e5tXU0Gxh-11">
          <mxGeometry width="50" height="50" relative="1" as="geometry">
            <mxPoint x="923" y="779" as="sourcePoint" />
            <mxPoint x="973" y="729" as="targetPoint" />
          </mxGeometry>
        </mxCell>
        <mxCell id="s0LP5q2Mw33e5tXU0Gxh-14" value="Feature extraction based on facial action units" style="rounded=0;whiteSpace=wrap;html=1;" vertex="1" parent="1">
          <mxGeometry x="811" y="871" width="120" height="60" as="geometry" />
        </mxCell>
        <mxCell id="s0LP5q2Mw33e5tXU0Gxh-15" value="" style="endArrow=classic;html=1;rounded=0;exitX=0;exitY=0.5;exitDx=0;exitDy=0;entryX=1;entryY=0.5;entryDx=0;entryDy=0;" edge="1" parent="1" source="s0LP5q2Mw33e5tXU0Gxh-11" target="s0LP5q2Mw33e5tXU0Gxh-14">
          <mxGeometry width="50" height="50" relative="1" as="geometry">
            <mxPoint x="923" y="779" as="sourcePoint" />
            <mxPoint x="973" y="729" as="targetPoint" />
          </mxGeometry>
        </mxCell>
        <mxCell id="s0LP5q2Mw33e5tXU0Gxh-16" value="3D CNN Model" style="rounded=0;whiteSpace=wrap;html=1;" vertex="1" parent="1">
          <mxGeometry x="660" y="871" width="120" height="60" as="geometry" />
        </mxCell>
        <mxCell id="s0LP5q2Mw33e5tXU0Gxh-17" value="" style="endArrow=classic;html=1;rounded=0;exitX=0;exitY=0.5;exitDx=0;exitDy=0;entryX=1;entryY=0.5;entryDx=0;entryDy=0;" edge="1" parent="1" source="s0LP5q2Mw33e5tXU0Gxh-14" target="s0LP5q2Mw33e5tXU0Gxh-16">
          <mxGeometry width="50" height="50" relative="1" as="geometry">
            <mxPoint x="923" y="779" as="sourcePoint" />
            <mxPoint x="973" y="729" as="targetPoint" />
          </mxGeometry>
        </mxCell>
        <mxCell id="s0LP5q2Mw33e5tXU0Gxh-18" value="Emotion Prediction&lt;br&gt;(Valence and Arousal)" style="rounded=0;whiteSpace=wrap;html=1;" vertex="1" parent="1">
          <mxGeometry x="510" y="871" width="120" height="60" as="geometry" />
        </mxCell>
        <mxCell id="s0LP5q2Mw33e5tXU0Gxh-19" value="" style="endArrow=classic;html=1;rounded=0;exitX=0;exitY=0.5;exitDx=0;exitDy=0;entryX=1;entryY=0.5;entryDx=0;entryDy=0;" edge="1" parent="1" source="s0LP5q2Mw33e5tXU0Gxh-16" target="s0LP5q2Mw33e5tXU0Gxh-18">
          <mxGeometry width="50" height="50" relative="1" as="geometry">
            <mxPoint x="641" y="850" as="sourcePoint" />
            <mxPoint x="691" y="800" as="targetPoint" />
          </mxGeometry>
        </mxCell>
      </root>
    </mxGraphModel>
  </diagram>
</mxfile>
